# Blender v2.79 (sub 0) OBJ File: 'tree_noleaves.blend'
# www.blender.org
mtllib tree_noleaves.mtl
o Cylinder.002
v -0.000000 -0.062192 -0.511728
v -0.000000 3.662192 -0.381412
v 0.384979 -0.062192 -0.361846
v 0.286941 3.579597 -0.269699
v 0.544443 -0.062192 0.000000
v 0.405796 3.725336 0.000000
v 0.384979 -0.062192 0.361846
v 0.286941 3.662192 0.269699
v -0.000000 -0.062192 0.511728
v -0.000000 3.733292 0.365245
v -0.384980 -0.062192 0.361846
v -0.286941 3.742992 0.269699
v -0.544443 -0.062192 -0.000000
v -0.405796 3.623050 -0.000000
v -0.384980 -0.062192 -0.361846
v -0.286941 3.783822 -0.269699
v 1.384984 6.300314 -0.064414
v 1.316452 6.300314 -0.091095
v 1.413370 6.300314 -0.000000
v 1.384984 6.300314 0.064414
v 1.316452 6.300314 0.091095
v 1.247920 6.300314 0.064414
v 1.219533 6.300314 -0.000000
v 1.247920 6.300314 -0.064414
v 0.652374 4.924595 -0.000000
v 0.584668 4.952955 0.166566
v 0.257758 5.089886 0.166566
v 0.199448 5.025855 0.024347
v 0.421213 5.021420 0.235560
v 0.313376 5.098675 -0.129661
v 0.584668 4.952955 -0.166566
v 0.422393 4.938361 -0.246668
v -0.000000 0.573288 -0.381412
v 0.286941 0.573288 -0.269699
v 0.405796 0.573288 0.000000
v 0.286941 0.573288 0.269699
v -0.000000 0.573288 0.381412
v -0.286941 0.573288 0.269699
v -0.405796 0.573288 -0.000000
v -0.286941 0.573288 -0.269699
v 0.406773 4.246661 0.218300
v -0.108837 4.452956 -0.000000
v 0.209924 4.339605 0.308722
v -0.015474 4.282725 -0.218300
v 0.209924 4.206858 -0.332398
v 0.528685 4.153443 -0.058243
v -0.015474 4.282725 0.218300
v 0.507434 4.346781 -0.249363
v -1.969777 5.169089 -0.013995
v -1.958190 5.184865 0.012298
v -1.958190 5.202516 -0.040288
v -1.940827 5.246193 -0.013995
v -1.931725 5.242271 -0.035277
v -1.931725 5.242271 0.007287
v -0.845208 4.504637 -0.008453
v -0.855881 4.476616 0.143601
v -0.969265 4.134985 -0.196308
v -0.833356 4.476616 -0.107167
v -1.052052 3.983640 -0.008453
v -0.969265 4.076683 0.179403
v -0.000000 3.127089 -0.381412
v 0.286941 3.127089 -0.269699
v 0.405796 3.127089 0.000000
v 0.263999 3.150141 0.269699
v -0.000000 3.008164 0.381412
v -0.246797 3.173192 0.269699
v -0.405796 3.096286 -0.000000
v -0.286941 3.127089 -0.269699
v -0.000000 4.455215 1.854323
v 0.044585 4.436406 1.845983
v -0.044586 4.436406 1.845983
v 0.044585 4.367162 1.892009
v -0.000000 4.370331 1.910747
v -0.044586 4.367162 1.892009
v -0.000000 3.362328 1.269965
v -0.206205 3.449924 1.183072
v -0.000000 3.877011 1.085939
v 0.206205 3.799255 1.032956
v -0.206205 3.799255 1.032955
v 0.206205 3.449924 1.183073
v 1.458919 4.494380 -1.217294
v 1.415886 4.536992 -1.221726
v 1.469461 4.536675 -1.174070
v 1.413249 4.596640 -1.203011
v 1.457494 4.593980 -1.154264
v 1.443691 4.604540 -1.185777
v 0.801772 3.899201 -0.512484
v 0.874717 4.203040 -0.505149
v 0.752567 4.329386 -0.589186
v 0.723031 3.792624 -0.698307
v 0.526422 3.874232 -0.724828
v 0.657624 4.263110 -0.717588
v 0.571405 4.419783 -0.038127
v 0.078895 4.561502 0.200432
v 0.534109 4.556140 -0.220767
v 0.468215 4.490600 0.200432
v 0.054927 4.714062 0.002779
v 0.282899 4.575090 0.283454
v 0.101500 4.630191 -0.197653
v 0.305504 4.649480 -0.296173
v -0.652081 5.661194 -0.938175
v -0.643808 5.634231 -0.964255
v -0.677903 5.652438 -0.916606
v -0.721036 5.617414 -0.934633
v -0.715312 5.609608 -0.971065
v -0.680521 5.601735 -0.985737
v -0.298955 5.193036 -0.418950
v -0.432642 5.019396 -0.462086
v -0.408032 4.976557 -0.597485
v -0.272964 4.967981 -0.656076
v -0.160853 5.128846 -0.597393
v -0.211684 5.235294 -0.509883
v 0.241508 1.971452 -0.226849
v 0.341479 1.971452 0.000000
v 0.232664 1.980339 0.226849
v 0.000157 1.925605 0.320813
v -0.225719 1.989226 0.226849
v -0.341166 1.959577 -0.000000
v -0.241195 1.971452 -0.226849
v 0.000157 1.971452 -0.320813
vn 0.3628 0.0000 -0.9319
vn 0.9151 0.0000 -0.4033
vn 0.9008 -0.0186 0.4339
vn 0.1598 0.7905 -0.5912
vn -0.4728 -0.4789 0.7397
vn -0.8837 -0.0323 0.4670
vn 0.8051 -0.4470 0.3898
vn -0.9151 0.0000 -0.4033
vn -0.3628 0.0000 -0.9319
vn 0.0000 -1.0000 0.0000
vn 0.0000 1.0000 0.0000
vn -0.7679 0.6277 0.1277
vn 0.3436 -0.1346 0.9294
vn -0.7490 0.5960 -0.2893
vn 0.8051 -0.4470 -0.3898
vn -0.2846 0.3056 0.9087
vn -0.3814 0.3459 -0.8572
vn 0.4224 -0.1796 -0.8884
vn 0.3775 0.0477 -0.9248
vn -0.8930 -0.4494 -0.0252
vn -0.3507 0.1910 0.9168
vn 0.9381 -0.1030 -0.3307
vn -0.6051 0.2962 0.7390
vn 0.3897 -0.0264 0.9206
vn -0.8873 0.3460 0.3049
vn 0.8889 -0.1833 0.4198
vn -0.3563 0.1877 -0.9153
vn -0.8974 0.1958 -0.3955
vn -0.8974 0.1958 0.3955
vn -0.3563 0.1877 0.9153
vn 0.3563 0.1877 0.9153
vn 0.8974 0.1958 0.3955
vn 0.8974 0.1958 -0.3955
vn 0.3563 0.1877 -0.9153
vn 0.8980 -0.1714 0.4052
vn 0.0764 0.2082 -0.9751
vn 0.3548 -0.0135 0.9349
vn 0.5564 0.8162 0.1555
vn 0.2211 0.7479 0.6260
vn -0.3507 0.2327 0.9071
vn -0.3152 0.2339 -0.9197
vn 0.7777 -0.1766 0.6033
vn -0.8810 0.3738 0.2900
vn -0.8947 0.4295 -0.1227
vn -0.5953 -0.4597 -0.6590
vn -0.0513 0.1043 0.9932
vn 0.5596 0.8199 -0.1205
vn -0.6620 -0.5089 0.5503
vn -0.4236 -0.7354 0.5290
vn 0.1024 0.8583 -0.5028
vn -0.0661 0.1190 0.9907
vn -0.3904 -0.6713 -0.6300
vn 0.1144 0.8862 0.4489
vn -0.0519 0.1891 -0.9806
vn -0.3624 -0.0489 -0.9308
vn -0.9122 -0.0515 -0.4064
vn -0.8707 -0.0412 0.4901
vn -0.4169 -0.0453 0.9078
vn 0.3983 -0.0476 0.9160
vn 0.8907 -0.0450 0.4524
vn 0.9139 -0.0509 -0.4027
vn 0.3624 -0.0488 -0.9308
vn 0.3628 0.5159 0.7761
vn -0.3628 0.5159 0.7761
vn -0.9877 0.0665 0.1419
vn 0.9877 0.0665 0.1419
vn 0.4728 -0.4789 0.7397
vn -0.1598 0.7905 -0.5912
vn -0.0977 0.9870 -0.1277
vn 0.5190 -0.7980 0.3063
vn 0.9963 -0.0117 0.0854
vn -0.9965 -0.0307 0.0782
vn -0.5592 -0.7785 0.2852
vn 0.2381 0.9566 -0.1680
vn 0.8782 0.2647 -0.3985
vn 0.3970 0.2985 -0.8679
vn 0.7418 -0.6563 0.1374
vn -0.1375 -0.4809 -0.8659
vn -0.4369 0.8959 -0.0802
vn -0.5934 0.2150 -0.7757
vn -0.6233 0.2719 -0.7332
vn -0.3311 0.9048 -0.2679
vn -0.1085 -0.8075 -0.5798
vn 0.5803 -0.7926 0.1873
vn 0.7982 -0.1734 0.5769
vn 0.5846 0.6638 0.4665
vn 0.8786 -0.1813 0.4417
vn -0.7687 0.3819 0.5132
vn 0.4014 -0.0302 0.9154
vn -0.7830 0.3801 -0.4924
vn 0.9611 -0.1144 -0.2515
vn -0.3952 0.2037 0.8957
vn -0.4180 0.1766 -0.8911
vn 0.2847 0.0418 -0.9577
vn -0.1581 0.6618 -0.7328
vn -0.5256 0.8058 -0.2727
vn 0.5499 -0.0785 -0.8315
vn 0.7863 0.5637 -0.2529
vn -0.3650 -0.6008 -0.7113
vn 0.2109 0.7930 0.5716
vn -0.0449 0.9179 0.3944
vn -0.1930 -0.8586 -0.4750
vn 0.5282 0.6928 -0.4909
vn 0.5051 -0.0500 -0.8616
vn -0.5939 0.2379 0.7686
vn -0.6304 -0.7609 0.1535
vn 0.3625 0.0403 -0.9311
vn 0.9143 0.0421 -0.4029
vn 0.9084 0.0448 0.4157
vn 0.3640 0.0420 0.9305
vn -0.3673 0.0429 0.9291
vn -0.9045 0.0471 0.4240
vn -0.9146 0.0424 -0.4021
vn -0.3625 0.0404 -0.9311
usemtl Bark
s off
f 61//1 2//1 4//1 62//1
f 62//2 4//2 6//2 63//2
f 63//3 6//3 8//3 64//3
f 78//4 77//4 69//4 70//4
f 76//5 75//5 73//5 74//5
f 66//6 12//6 14//6 67//6
f 26//7 25//7 19//7 20//7
f 67//8 14//8 16//8 68//8
f 68//9 16//9 2//9 61//9
f 1//10 3//10 5//10 7//10 9//10 11//10 13//10 15//10
f 17//11 18//11 24//11 23//11 22//11 21//11 20//11 19//11
f 28//12 27//12 22//12 23//12
f 29//13 26//13 20//13 21//13
f 30//14 28//14 23//14 24//14
f 25//15 31//15 17//15 19//15
f 27//16 29//16 21//16 22//16
f 32//17 30//17 24//17 18//17
f 31//18 32//18 18//18 17//18
f 95//19 100//19 32//19 31//19
f 109//20 108//20 104//20 105//20
f 94//21 98//21 29//21 27//21
f 93//22 95//22 31//22 25//22
f 108//23 107//23 103//23 104//23
f 98//24 96//24 26//24 29//24
f 97//25 94//25 27//25 28//25
f 96//26 93//26 25//26 26//26
f 15//27 40//27 33//27 1//27
f 13//28 39//28 40//28 15//28
f 11//29 38//29 39//29 13//29
f 9//30 37//30 38//30 11//30
f 7//31 36//31 37//31 9//31
f 5//32 35//32 36//32 7//32
f 3//33 34//33 35//33 5//33
f 1//34 33//34 34//34 3//34
f 8//35 6//35 46//35 41//35
f 58//36 57//36 51//36 53//36
f 10//37 8//37 41//37 43//37
f 56//38 55//38 52//38 54//38
f 89//39 88//39 85//39 86//39
f 12//40 10//40 43//40 47//40
f 2//41 16//41 44//41 45//41
f 88//42 87//42 83//42 85//42
f 49//43 50//43 54//43 52//43
f 51//44 49//44 52//44 53//44
f 57//45 59//45 49//45 51//45
f 60//46 56//46 54//46 50//46
f 55//47 58//47 53//47 52//47
f 59//48 60//48 50//48 49//48
f 14//49 12//49 60//49 59//49
f 42//50 44//50 58//50 55//50
f 12//51 47//51 56//51 60//51
f 16//52 14//52 59//52 57//52
f 47//53 42//53 55//53 56//53
f 44//54 16//54 57//54 58//54
f 119//55 68//55 61//55 120//55
f 118//56 67//56 68//56 119//56
f 117//57 66//57 67//57 118//57
f 116//58 65//58 66//58 117//58
f 115//59 64//59 65//59 116//59
f 114//60 63//60 64//60 115//60
f 113//61 62//61 63//61 114//61
f 120//62 61//62 62//62 113//62
f 72//63 70//63 69//63 73//63
f 73//64 69//64 71//64 74//64
f 79//65 76//65 74//65 71//65
f 80//66 78//66 70//66 72//66
f 75//67 80//67 72//67 73//67
f 77//68 79//68 71//68 69//68
f 10//69 12//69 79//69 77//69
f 65//70 64//70 80//70 75//70
f 64//71 8//71 78//71 80//71
f 12//72 66//72 76//72 79//72
f 66//73 65//73 75//73 76//73
f 8//74 10//74 77//74 78//74
f 83//75 81//75 86//75 85//75
f 81//76 82//76 84//76 86//76
f 87//77 90//77 81//77 83//77
f 90//78 91//78 82//78 81//78
f 92//79 89//79 86//79 84//79
f 91//80 92//80 84//80 82//80
f 2//81 45//81 92//81 91//81
f 45//82 48//82 89//82 92//82
f 4//83 2//83 91//83 90//83
f 6//84 4//84 90//84 87//84
f 46//85 6//85 87//85 88//85
f 48//86 46//86 88//86 89//86
f 41//87 46//87 93//87 96//87
f 42//88 47//88 94//88 97//88
f 43//89 41//89 96//89 98//89
f 44//90 42//90 97//90 99//90
f 46//91 48//91 95//91 93//91
f 47//92 43//92 98//92 94//92
f 45//93 44//93 99//93 100//93
f 48//94 45//94 100//94 95//94
f 106//95 105//95 101//95 102//95
f 105//96 104//96 103//96 101//96
f 111//97 110//97 106//97 102//97
f 112//98 111//98 102//98 101//98
f 110//99 109//99 105//99 106//99
f 107//100 112//100 101//100 103//100
f 28//101 30//101 112//101 107//101
f 100//102 99//102 109//102 110//102
f 30//103 32//103 111//103 112//103
f 32//104 100//104 110//104 111//104
f 97//105 28//105 107//105 108//105
f 99//106 97//106 108//106 109//106
f 33//107 120//107 113//107 34//107
f 34//108 113//108 114//108 35//108
f 35//109 114//109 115//109 36//109
f 36//110 115//110 116//110 37//110
f 37//111 116//111 117//111 38//111
f 38//112 117//112 118//112 39//112
f 39//113 118//113 119//113 40//113
f 40//114 119//114 120//114 33//114
