# Blender v2.79 (sub 0) OBJ File: ''
# www.blender.org
mtllib house.mtl
o Plane
v 0.984446 2.740349 0.839831
v 0.993321 0.886651 0.839831
v 0.984446 2.740349 -0.760169
v 0.993321 0.886651 -0.760169
v 0.714345 2.753706 0.889000
v 0.825344 2.754237 1.000000
v 0.824812 2.865236 0.889000
v 1.003342 2.755089 1.000000
v 1.114341 2.755621 0.889000
v 1.002810 2.866088 0.889000
v 0.714345 2.753706 -0.889000
v 0.824812 2.865236 -0.889000
v 0.825344 2.754237 -1.000000
v 1.114341 2.755621 -0.889000
v 1.003342 2.755089 -1.000000
v 1.002810 2.866088 -0.889000
v 0.722858 0.975726 0.889000
v 0.834388 0.865259 0.889000
v 0.833857 0.976258 1.000000
v 1.122854 0.977641 0.889000
v 1.011855 0.977110 1.000000
v 1.012386 0.866111 0.889000
v 0.722858 0.975726 -0.889000
v 0.833857 0.976257 -1.000000
v 0.834388 0.865259 -0.889000
v 1.122854 0.977641 -0.889000
v 1.012386 0.866111 -0.889000
v 1.011855 0.977110 -1.000000
v 1.114879 2.643135 -0.713822
v 0.714884 2.641220 -0.713822
v 1.114879 2.643135 -0.073490
v 0.714884 2.641220 -0.073490
v 1.117945 2.002810 0.724510
v 0.717950 2.000895 0.724510
v 1.117945 2.002810 0.084178
v 0.717950 2.000895 0.084178
v 1.114879 2.643135 0.724510
v 0.714884 2.641220 0.724510
v 1.114879 2.643135 0.084178
v 0.714884 2.641220 0.084178
v 1.117945 2.002810 -0.713821
v 0.717950 2.000895 -0.713821
v 1.117945 2.002810 -0.073489
v 1.117945 2.002810 -0.136181
v 0.717950 2.000895 -0.073489
v 0.719375 1.703231 -0.073489
v 1.119370 1.705146 -0.073489
v 1.119370 1.705146 -0.183547
v 1.119370 1.705146 -0.713821
v 0.719375 1.703231 -0.713821
v 0.722441 1.062906 0.084178
v 1.122436 1.064821 0.084178
v 0.722441 1.062906 0.724510
v 1.122436 1.064821 0.724510
v 0.719375 1.703231 0.084178
v 1.119370 1.705146 0.084178
v 1.119370 1.705146 0.724510
v 0.719375 1.703231 0.724510
v 0.722441 1.062906 -0.713821
v 1.122436 1.064821 -0.713821
v 0.722441 1.062906 -0.073489
v 1.122436 1.064821 -0.073489
v -0.186693 3.803249 0.446024
v -0.377846 5.714780 0.637177
v -0.186693 3.803249 -0.446024
v -0.377846 5.714780 -0.637177
v 0.705355 3.803249 0.446024
v 0.896508 5.714780 0.637177
v 0.705355 3.803249 -0.446024
v 0.896508 5.714780 -0.637177
v -0.377846 5.233774 0.637177
v -0.377846 5.233774 -0.637177
v 0.896508 5.233774 -0.637177
v 0.896508 5.233774 0.637177
v -0.197512 4.871423 -0.456843
v 0.716174 4.871423 -0.456843
v 0.716174 4.871423 0.456843
v -0.197512 4.871423 0.456843
v -0.377846 5.714780 0.637177
v -0.377846 5.714780 -0.637177
v 0.896508 5.714780 0.637177
v 0.896508 5.714780 -0.637177
v -0.093437 5.843766 0.352768
v -0.093437 5.843767 -0.352768
v 0.612099 5.843766 0.352769
v 0.612099 5.843766 -0.352768
v -0.122975 3.866967 0.382306
v -0.122975 3.866967 -0.382306
v 0.641637 3.866967 0.382306
v 0.641637 3.866967 -0.382306
v 1.000036 -0.010903 -1.820412
v 1.000036 -0.010903 1.829218
v -2.649595 -0.010903 1.829218
v -2.649595 -0.010903 -1.820413
v 1.000036 3.638727 -1.820411
v 1.000034 3.638727 1.829220
v -2.649596 3.638728 1.829218
v -2.649595 3.638728 -1.820413
v -0.824780 5.260756 -1.820413
v -0.824780 5.260755 1.829219
v 1.000034 3.638727 1.829220
v -1.585600 0.140685 1.829218
v -0.063960 0.140685 1.829218
v -1.585600 3.101871 1.829219
v -0.063960 3.101871 1.829219
v 0.087628 -0.010903 1.829218
v -1.737188 3.253459 1.829219
v -1.737188 -0.010903 1.829218
v 0.087628 3.253459 1.829219
v -0.824780 3.101871 2.011700
v -1.585600 0.140685 2.011700
v -0.063960 0.140685 2.011700
v -1.585600 3.101871 2.011700
v -0.063960 3.101871 2.011700
v 0.087628 -0.010903 2.011700
v -1.737188 3.253459 2.011700
v -0.824780 3.253459 2.011700
v -1.737188 -0.010903 2.011700
v 0.087628 3.253459 2.011700
v 1.000036 -0.010903 1.829218
vt 0.000000 0.000000
vt 0.000000 0.000000
vt 0.000000 0.000000
vt 0.000000 0.000000
vt 0.709249 0.709038
vt 0.709249 0.709135
vt 0.709249 0.912129
vt 0.709249 0.912032
vt 0.924918 0.696365
vt 0.924918 0.696463
vt 0.721922 0.696463
vt 0.721922 0.696365
vt 0.924918 0.709196
vt 0.904917 0.719149
vt 0.831810 0.719149
vt 0.831810 0.792256
vt 0.844375 0.792256
vt 0.838968 0.826241
vt 0.831810 0.826241
vt 0.831810 0.899347
vt 0.924918 0.912190
vt 0.721922 0.912190
vt 0.740702 0.899347
vt 0.813809 0.899347
vt 0.813809 0.826241
vt 0.813809 0.792256
vt 0.813809 0.719149
vt 0.721922 0.709196
vt 0.721922 0.924704
vt 0.721922 0.924802
vt 0.924918 0.924802
vt 0.924918 0.924704
vt 0.937591 0.912032
vt 0.937591 0.912129
vt 0.937591 0.709135
vt 0.937591 0.709038
vt 0.721922 0.911971
vt 0.924918 0.911971
vt 0.721922 0.708977
vt 0.924918 0.708977
vt 0.831810 0.718931
vt 0.904917 0.718931
vt 0.904917 0.792037
vt 0.904917 0.826022
vt 0.904917 0.899128
vt 0.813809 0.899128
vt 0.740702 0.899128
vt 0.831810 0.826022
vt 0.904917 0.826241
vt 0.813809 0.826022
vt 0.831810 0.899128
vt 0.740702 0.718931
vt 0.740702 0.719149
vt 0.813809 0.718931
vt 0.740702 0.826022
vt 0.740702 0.826241
vt 0.831810 0.792037
vt 0.813809 0.792037
vt 0.904917 0.899347
vt 0.740702 0.792256
vt 0.740702 0.792037
vt 0.904917 0.792256
vt 0.389831 0.974104
vt 0.333454 0.974103
vt 0.333455 0.824742
vt 0.389832 0.824742
vt 0.389817 0.974116
vt 0.333436 0.974116
vt 0.333436 0.824742
vt 0.389817 0.824742
vt 0.389800 0.974114
vt 0.333427 0.974094
vt 0.333478 0.824743
vt 0.389851 0.824762
vt 0.389817 0.974116
vt 0.333436 0.974116
vt 0.333436 0.824742
vt 0.389817 0.824742
vt 0.330820 0.974093
vt 0.330871 0.824742
vt 0.437260 0.952978
vt 0.437260 0.845880
vt 0.437242 0.952995
vt 0.437279 0.845913
vt 0.437260 0.952978
vt 0.437260 0.845880
vt 0.437270 0.952968
vt 0.437270 0.845878
vt 0.562472 0.951700
vt 0.562473 0.847147
vt 0.562473 0.951710
vt 0.562473 0.847148
vt 0.562437 0.951770
vt 0.562473 0.847224
vt 0.562473 0.951710
vt 0.562473 0.847148
vt 0.294231 0.940749
vt 0.294260 0.858061
vt 0.330848 0.974103
vt 0.330848 0.824742
vt 0.330829 0.974116
vt 0.330829 0.824764
vt 0.330829 0.974116
vt 0.330829 0.824764
vt 0.294229 0.858097
vt 0.294230 0.940784
vt 0.062528 0.944246
vt 0.062527 0.854635
vt 0.294246 0.940769
vt 0.294246 0.858076
vt 0.294230 0.940784
vt 0.294229 0.858097
vt 0.062527 0.944246
vt 0.062527 0.854635
vt 0.062527 0.944131
vt 0.062558 0.854520
vt 0.062527 0.944230
vt 0.062528 0.854613
vt 0.000000 0.000000
vt 0.000000 0.000000
vt 0.000000 0.000000
vt 0.000000 0.000000
vt 0.387452 0.245889
vt 0.189989 0.245891
vt 0.189988 0.048428
vt 0.387451 0.048427
vt 0.756985 0.041678
vt 0.923628 0.041678
vt 0.923628 0.208322
vt 0.756985 0.208322
vt 0.682922 0.125000
vt 0.428521 0.247298
vt 0.428521 0.048427
vt 0.627392 0.048427
vt 0.627392 0.247298
vt 0.745036 0.276728
vt 0.745036 0.560716
vt 0.745036 0.560716
vt 0.745036 0.276728
vt 0.000000 0.000000
vt 0.000000 0.000000
vt 0.125694 0.290983
vt 0.125694 0.549799
vt 0.270375 0.549799
vt 0.270375 0.290983
vt 0.342716 0.290983
vt 0.342716 0.580345
vt 0.198035 0.708948
vt 0.053354 0.580345
vt 0.053354 0.290983
vt 0.905504 0.262190
vt 0.905504 0.575254
vt 0.905504 0.575254
vt 0.905504 0.262190
vt 0.730498 0.575254
vt 0.730498 0.262190
vt 0.730498 0.262190
vt 0.730498 0.575254
vt 0.890966 0.276728
vt 0.890966 0.560716
vt 0.818001 0.262190
vt 0.818001 0.276728
vt 0.890966 0.560716
vt 0.627392 0.446169
vt 0.428521 0.446169
vt 0.425050 0.247326
vt 0.425048 0.247094
vt 0.427362 0.247076
vt 0.427449 0.246861
vt 0.890966 0.276728
vn 1.0000 0.0048 0.0000
vn 0.0000 0.0000 1.0000
vn 0.0048 -1.0000 0.0000
vn -0.0048 1.0000 0.0000
vn -0.0000 0.0000 -1.0000
vn -0.5801 0.5746 0.5773
vn 0.5746 0.5801 0.5773
vn -0.5801 0.5746 -0.5773
vn 0.5746 0.5801 -0.5773
vn -0.5746 -0.5801 0.5774
vn 0.5801 -0.5746 0.5774
vn -0.5746 -0.5801 -0.5774
vn 0.5801 -0.5746 -0.5774
vn -0.7105 0.7037 0.0000
vn -0.0034 0.7071 0.7071
vn 0.7037 0.7105 0.0000
vn -0.0034 0.7071 -0.7071
vn -0.7071 -0.0034 -0.7071
vn 0.7071 0.0034 -0.7071
vn 0.0034 -0.7071 -0.7071
vn -0.7037 -0.7105 -0.0000
vn 0.7105 -0.7037 0.0000
vn 0.0034 -0.7071 0.7071
vn -0.7071 -0.0034 0.7071
vn 0.7071 0.0034 0.7071
vn -1.0000 -0.0048 -0.0000
vn -1.0000 0.0000 0.0000
vn 1.0000 -0.0000 0.0000
vn -0.0000 -0.4455 0.8953
vn 0.8953 -0.4455 0.0000
vn -0.0000 -0.4455 -0.8953
vn -0.8953 -0.4455 0.0000
vn -0.9999 -0.0101 0.0000
vn 0.0000 -0.0101 -0.9999
vn 0.9999 -0.0101 0.0000
vn 0.0000 -0.0101 0.9999
vn 0.4130 0.9107 0.0000
vn 0.0000 -0.0149 -0.9999
vn -0.4130 0.9107 0.0000
vn -0.0000 0.9107 0.4130
vn 0.0000 0.9107 -0.4130
vn 0.0000 -0.0149 0.9999
vn -0.9999 -0.0149 0.0000
vn 0.9999 -0.0149 0.0000
vn -0.6644 0.7474 -0.0000
vn 0.6644 0.7474 0.0000
vn 0.0000 1.0000 0.0000
vn -0.0000 -1.0000 0.0000
usemtl Material
s off
f 1/1/1 2/2/1 4/3/1 3/4/1
f 19/5/2 21/6/2 8/7/2 6/8/2
f 25/9/3 27/10/3 22/11/3 18/12/3
f 26/13/1 60/14/1 62/15/1 47/16/1 48/17/1 44/18/1 43/19/1 31/20/1 14/21/1 9/22/1 37/23/1 39/24/1 35/25/1 56/26/1 52/27/1 20/28/1
f 7/29/4 10/30/4 16/31/4 12/32/4
f 13/33/5 15/34/5 28/35/5 24/36/5
f 5/37/6 6/8/6 7/29/6
f 8/7/7 9/22/7 10/30/7
f 11/38/8 12/32/8 13/33/8
f 14/21/9 15/34/9 16/31/9
f 17/39/10 18/12/10 19/5/10
f 20/28/11 21/6/11 22/11/11
f 23/40/12 24/36/12 25/9/12
f 26/13/13 27/10/13 28/35/13
f 11/38/14 5/37/14 7/29/14 12/32/14
f 6/8/15 8/7/15 10/30/15 7/29/15
f 9/22/16 14/21/16 16/31/16 10/30/16
f 15/34/17 13/33/17 12/32/17 16/31/17
f 23/40/18 11/38/18 13/33/18 24/36/18
f 14/21/19 26/13/19 28/35/19 15/34/19
f 27/10/20 25/9/20 24/36/20 28/35/20
f 17/39/21 23/40/21 25/9/21 18/12/21
f 26/13/22 20/28/22 22/11/22 27/10/22
f 21/6/23 19/5/23 18/12/23 22/11/23
f 5/37/24 17/39/24 19/5/24 6/8/24
f 20/28/25 9/22/25 8/7/25 21/6/25
f 11/38/26 23/40/26 61/41/26 59/42/26 50/43/26 42/44/26 30/45/26
f 40/46/3 39/24/3 37/23/3 38/47/3
f 45/48/4 43/19/4 44/18/4 41/49/4 42/44/4
f 36/50/2 35/25/2 39/24/2 40/46/2
f 32/51/5 31/20/5 43/19/5 45/48/5
f 53/52/4 54/53/4 52/27/4 51/54/4
f 34/55/4 33/56/4 35/25/4 36/50/4
f 38/47/5 37/23/5 33/56/5 34/55/5
f 46/57/5 47/16/5 62/15/5 61/41/5
f 61/41/4 62/15/4 60/14/4 59/42/4
f 51/54/2 52/27/2 56/26/2 55/58/2
f 30/45/3 29/59/3 31/20/3 32/51/3
f 55/58/3 56/26/3 57/60/3 58/61/3
f 58/61/5 57/60/5 54/53/5 53/52/5
f 20/28/1 52/27/1 54/53/1 57/60/1 56/26/1 35/25/1 33/56/1 37/23/1 9/22/1
f 14/21/1 31/20/1 29/59/1 41/49/1 44/18/1 48/17/1 49/62/1 60/14/1 26/13/1
f 30/45/26 32/51/26 45/48/26 42/44/26 50/43/26 46/57/26 61/41/26 23/40/26 17/39/26 53/52/26 51/54/26 55/58/26 36/50/26 40/46/26 5/37/26 11/38/26
f 5/37/26 40/46/26 38/47/26 34/55/26 36/50/26 55/58/26 58/61/26 53/52/26 17/39/26
f 59/42/2 60/14/2 49/62/2 50/43/2
f 42/44/2 41/49/2 29/59/2 30/45/2
f 50/43/3 49/62/3 48/17/3 47/16/3 46/57/3
f 71/63/27 64/64/27 66/65/27 72/66/27
f 72/67/5 66/68/5 70/69/5 73/70/5
f 73/71/28 70/72/28 68/73/28 74/74/28
f 74/75/2 68/76/2 64/77/2 71/78/2
f 68/73/2 70/72/2 82/79/2 81/80/2
f 77/81/29 74/75/29 71/78/29 78/82/29
f 76/83/30 73/71/30 74/74/30 77/84/30
f 75/85/31 72/67/31 73/70/31 76/86/31
f 78/87/32 71/63/32 72/66/32 75/88/32
f 63/89/33 78/87/33 75/88/33 65/90/33
f 65/91/34 75/85/34 76/86/34 69/92/34
f 69/93/35 76/83/35 77/84/35 67/94/35
f 67/95/36 77/81/36 78/82/36 63/96/36
f 81/80/37 82/79/37 86/97/37 85/98/37
f 66/65/2 64/64/2 79/99/2 80/100/2
f 64/77/2 68/76/2 81/101/2 79/102/2
f 70/69/2 66/68/2 80/103/2 82/104/2
f 83/105/38 85/106/38 89/107/38 87/108/38
f 80/100/39 79/99/39 83/109/39 84/110/39
f 79/102/40 81/101/40 85/106/40 83/105/40
f 82/104/41 80/103/41 84/111/41 86/112/41
f 86/112/42 84/111/42 88/113/42 90/114/42
f 85/98/43 86/97/43 90/115/43 89/116/43
f 84/110/44 83/109/44 87/117/44 88/118/44
f 99/119/45 98/120/45 97/121/45 100/122/45
f 91/123/28 95/124/28 101/125/28 92/126/28
f 95/127/5 91/128/5 94/129/5 98/130/5 99/131/5
f 93/132/27 97/133/27 98/134/27 94/135/27
f 105/136/27 103/137/27 112/138/27 114/139/27
f 95/140/46 99/119/46 100/122/46 96/141/46
f 108/142/2 107/143/2 109/144/2 106/145/2 120/146/2 101/147/2 100/148/2 97/149/2 93/150/2
f 107/151/27 108/152/27 118/153/27 116/154/27
f 106/155/28 109/156/28 119/157/28 115/158/28
f 103/137/2 105/136/2 104/159/2 102/160/2
f 114/139/2 112/138/2 115/158/2 119/157/2 117/161/2 110/162/2
f 103/137/47 102/160/47 111/163/47 112/138/47
f 91/164/48 120/165/48 106/166/48 115/167/48 118/168/48 108/169/48 93/132/48 94/135/48
f 102/160/28 104/159/28 113/170/28 111/163/28
f 104/159/48 105/136/48 114/139/48 110/162/48 113/170/48
f 111/163/2 113/170/2 110/162/2 117/161/2 116/154/2 118/153/2 115/158/2 112/138/2
f 109/156/47 107/151/47 116/154/47 117/161/47 119/157/47
