# Blender v2.79 (sub 0) OBJ File: 'fence.blend'
# www.blender.org
mtllib fence.mtl
o Icosphere.003
v -0.612018 0.374050 0.065889
v -0.592680 0.382469 0.078554
v -0.615518 0.387686 0.086064
v -0.629410 0.391448 0.066111
v -0.615156 0.388556 0.046269
v -0.592456 0.383007 0.053959
v -0.598120 0.405072 0.086603
v -0.620821 0.410621 0.078913
v -0.620596 0.411159 0.054318
v -0.597758 0.405942 0.046808
v -0.583866 0.402180 0.066761
v -0.601258 0.419578 0.066983
vn -0.0054 -0.8289 0.5593
vn 0.4081 -0.9128 -0.0162
vn -0.6639 -0.6679 0.3363
vn -0.6574 -0.6523 -0.3772
vn 0.0051 -0.8037 -0.5950
vn 0.9128 -0.4085 -0.0006
vn 0.2438 -0.2728 0.9307
vn -0.8217 -0.0123 0.5698
vn -0.8112 0.0129 -0.5846
vn 0.2608 -0.2319 -0.9371
vn 0.8112 -0.0129 0.5846
vn -0.2608 0.2319 0.9371
vn -0.9128 0.4085 0.0006
vn -0.2438 0.2728 -0.9307
vn 0.8217 0.0123 -0.5698
vn 0.6574 0.6523 0.3772
vn -0.0051 0.8037 0.5950
vn -0.4081 0.9128 0.0162
vn 0.0054 0.8289 -0.5593
vn 0.6639 0.6679 -0.3363
usemtl Stone
s off
f 1//1 2//1 3//1
f 2//2 1//2 6//2
f 1//3 3//3 4//3
f 1//4 4//4 5//4
f 1//5 5//5 6//5
f 2//6 6//6 11//6
f 3//7 2//7 7//7
f 4//8 3//8 8//8
f 5//9 4//9 9//9
f 6//10 5//10 10//10
f 2//11 11//11 7//11
f 3//12 7//12 8//12
f 4//13 8//13 9//13
f 5//14 9//14 10//14
f 6//15 10//15 11//15
f 7//16 11//16 12//16
f 8//17 7//17 12//17
f 9//18 8//18 12//18
f 10//19 9//19 12//19
f 11//20 10//20 12//20
o Icosphere.002
v -0.601028 0.207441 0.042307
v -0.611027 0.187606 0.052882
v -0.592901 0.199773 0.064224
v -0.576900 0.207265 0.047105
v -0.585137 0.199729 0.025183
v -0.606229 0.187579 0.028753
v -0.593078 0.175172 0.064217
v -0.571986 0.187322 0.060646
v -0.567188 0.187295 0.036518
v -0.585314 0.175128 0.025175
v -0.601315 0.167636 0.042294
v -0.577187 0.167460 0.047093
vn -0.6747 0.5821 0.4538
vn -0.9136 0.3635 -0.1821
vn -0.0629 0.9345 0.3503
vn 0.0763 0.9338 -0.3497
vn -0.4495 0.5808 -0.6787
vn -0.9188 -0.3501 -0.1823
vn -0.5322 0.0036 0.8466
vn 0.4578 0.5738 0.6791
vn 0.6830 0.5726 -0.4535
vn -0.1678 0.0015 -0.9858
vn -0.6830 -0.5726 0.4535
vn 0.1678 -0.0015 0.9858
vn 0.9188 0.3501 0.1823
vn 0.5322 -0.0036 -0.8466
vn -0.4578 -0.5738 -0.6791
vn -0.0763 -0.9338 0.3497
vn 0.4495 -0.5808 0.6787
vn 0.9136 -0.3635 0.1821
vn 0.6747 -0.5821 -0.4538
vn 0.0629 -0.9345 -0.3503
usemtl Stone
s off
f 13//21 14//21 15//21
f 14//22 13//22 18//22
f 13//23 15//23 16//23
f 13//24 16//24 17//24
f 13//25 17//25 18//25
f 14//26 18//26 23//26
f 15//27 14//27 19//27
f 16//28 15//28 20//28
f 17//29 16//29 21//29
f 18//30 17//30 22//30
f 14//31 23//31 19//31
f 15//32 19//32 20//32
f 16//33 20//33 21//33
f 17//34 21//34 22//34
f 18//35 22//35 23//35
f 19//36 23//36 24//36
f 20//37 19//37 24//37
f 21//38 20//38 24//38
f 22//39 21//39 24//39
f 23//40 22//40 24//40
o Icosphere.001
v 0.430803 0.200144 0.040136
v 0.412757 0.214345 0.048962
v 0.418146 0.193026 0.059995
v 0.423863 0.176664 0.042536
v 0.422008 0.187870 0.020714
v 0.415144 0.211158 0.024686
v 0.394664 0.199641 0.056817
v 0.401528 0.176353 0.052846
v 0.403915 0.173166 0.028569
v 0.398527 0.194485 0.017536
v 0.392809 0.210848 0.034995
v 0.385869 0.187367 0.037395
vn 0.6579 0.4706 0.5880
vn 0.6041 0.7956 -0.0450
vn 0.8570 -0.2050 0.4728
vn 0.9263 -0.2974 -0.2315
vn 0.7699 0.3210 -0.5515
vn -0.0771 0.9875 -0.1372
vn 0.0100 0.4616 0.8870
vn 0.3322 -0.6315 0.7006
vn 0.4442 -0.7811 -0.4389
vn 0.1913 0.2195 -0.9567
vn -0.4442 0.7811 0.4389
vn -0.1913 -0.2195 0.9567
vn 0.0771 -0.9875 0.1372
vn -0.0100 -0.4616 -0.8870
vn -0.3322 0.6315 -0.7006
vn -0.9263 0.2974 0.2315
vn -0.7699 -0.3210 0.5515
vn -0.6041 -0.7956 0.0450
vn -0.6579 -0.4706 -0.5880
vn -0.8570 0.2050 -0.4728
usemtl Stone
s off
f 25//41 26//41 27//41
f 26//42 25//42 30//42
f 25//43 27//43 28//43
f 25//44 28//44 29//44
f 25//45 29//45 30//45
f 26//46 30//46 35//46
f 27//47 26//47 31//47
f 28//48 27//48 32//48
f 29//49 28//49 33//49
f 30//50 29//50 34//50
f 26//51 35//51 31//51
f 27//52 31//52 32//52
f 28//53 32//53 33//53
f 29//54 33//54 34//54
f 30//55 34//55 35//55
f 31//56 35//56 36//56
f 32//57 31//57 36//57
f 33//58 32//58 36//58
f 34//59 33//59 36//59
f 35//60 34//60 36//60
o Icosphere
v 0.390185 0.389999 0.058272
v 0.410411 0.385113 0.071398
v 0.394457 0.402113 0.079253
v 0.385925 0.414193 0.059593
v 0.396606 0.404658 0.039587
v 0.411739 0.386686 0.046883
v 0.418651 0.406288 0.080832
v 0.403518 0.424260 0.073536
v 0.404846 0.425833 0.049021
v 0.420799 0.408833 0.041166
v 0.429332 0.396753 0.060826
v 0.425071 0.420947 0.062147
vn -0.4989 -0.7027 0.5073
vn -0.1891 -0.9792 -0.0731
vn -0.9379 -0.1813 0.2956
vn -0.8994 -0.1357 -0.4155
vn -0.4366 -0.6288 -0.6434
vn 0.5127 -0.8581 -0.0273
vn 0.0114 -0.4106 0.9117
vn -0.6989 0.4329 0.5693
vn -0.6366 0.5067 -0.5814
vn 0.1122 -0.2912 -0.9501
vn 0.6366 -0.5067 0.5814
vn -0.1122 0.2912 0.9501
vn -0.5127 0.8581 0.0273
vn -0.0114 0.4106 -0.9117
vn 0.6989 -0.4329 -0.5693
vn 0.8994 0.1357 0.4155
vn 0.4366 0.6288 0.6434
vn 0.1891 0.9792 0.0731
vn 0.4989 0.7027 -0.5073
vn 0.9379 0.1813 -0.2956
usemtl Stone
s off
f 37//61 38//61 39//61
f 38//62 37//62 42//62
f 37//63 39//63 40//63
f 37//64 40//64 41//64
f 37//65 41//65 42//65
f 38//66 42//66 47//66
f 39//67 38//67 43//67
f 40//68 39//68 44//68
f 41//69 40//69 45//69
f 42//70 41//70 46//70
f 38//71 47//71 43//71
f 39//72 43//72 44//72
f 40//73 44//73 45//73
f 41//74 45//74 46//74
f 42//75 46//75 47//75
f 43//76 47//76 48//76
f 44//77 43//77 48//77
f 45//78 44//78 48//78
f 46//79 45//79 48//79
f 47//80 46//80 48//80
o Cube.003_Cube.004
v 0.547574 0.147255 0.024800
v -0.728476 0.140537 0.006560
v 0.552315 0.148775 -0.031613
v -0.732354 0.159463 -0.047010
v 0.539315 0.236021 0.045663
v -0.722034 0.238923 0.016567
v 0.552315 0.243055 -0.028982
v -0.725841 0.249679 -0.035699
v -0.426356 0.133259 0.033224
v -0.418814 0.146367 -0.004650
v -0.412814 0.249295 0.019138
v -0.418888 0.234685 0.039117
v -0.019646 0.159325 -0.024516
v -0.020189 0.256783 -0.008574
v -0.013870 0.246330 0.040363
v -0.020199 0.140775 0.026481
vn 0.0058 -0.9438 -0.3304
vn 0.1546 0.1669 -0.9738
vn -0.0344 0.9433 0.3301
vn -0.0822 -0.0734 0.9939
vn 0.9904 0.0273 0.1358
vn -0.9944 0.0583 0.0885
vn 0.0090 -0.0957 0.9954
vn -0.0112 0.9397 0.3418
vn -0.0639 0.1958 -0.9786
vn 0.0129 -0.9423 -0.3345
vn -0.0049 -0.9829 -0.1839
vn -0.0219 0.0963 -0.9951
vn 0.0230 0.9897 0.1413
vn -0.0038 -0.1760 0.9844
usemtl fence
s off
f 57//81 50//81 52//81 58//81
f 58//82 52//82 56//82 59//82
f 59//83 56//83 54//83 60//83
f 60//84 54//84 50//84 57//84
f 51//85 55//85 53//85 49//85
f 56//86 52//86 50//86 54//86
f 63//87 60//87 57//87 64//87
f 62//88 59//88 60//88 63//88
f 61//89 58//89 59//89 62//89
f 64//90 57//90 58//90 61//90
f 49//91 64//91 61//91 51//91
f 51//92 61//92 62//92 55//92
f 55//93 62//93 63//93 53//93
f 53//94 63//94 64//94 49//94
o Cube.002_Cube.003
v 0.567189 0.373016 0.034689
v -0.764950 0.335282 0.031669
v 0.571665 0.381560 -0.016426
v -0.730768 0.362266 -0.021901
v 0.571665 0.440916 0.043594
v -0.750535 0.451916 0.040603
v 0.571665 0.450735 -0.013795
v -0.717896 0.460991 -0.010590
v -0.366964 0.343731 0.038247
v -0.358701 0.367023 -0.011361
v -0.359519 0.467603 -0.000599
v -0.358027 0.457349 0.045965
v 0.027758 0.380944 -0.024516
v 0.035399 0.463619 -0.008839
v 0.030118 0.449759 0.036472
v 0.024512 0.357366 0.026481
vn 0.0250 -0.9027 -0.4296
vn 0.0262 0.1085 -0.9938
vn -0.0196 0.9820 0.1879
vn -0.0138 -0.0707 0.9974
vn 0.9987 -0.0356 0.0352
vn -0.8562 0.1548 -0.4928
vn 0.0278 -0.0876 0.9958
vn 0.0201 0.9668 0.2546
vn -0.0289 0.1438 -0.9892
vn 0.0187 -0.9071 -0.4205
vn 0.0188 -0.9542 -0.2987
vn 0.0042 0.1195 -0.9928
vn 0.0192 0.9740 0.2256
vn -0.0133 -0.1162 0.9931
usemtl fence
s off
f 73//95 66//95 68//95 74//95
f 74//96 68//96 72//96 75//96
f 75//97 72//97 70//97 76//97
f 76//98 70//98 66//98 73//98
f 67//99 71//99 69//99 65//99
f 72//100 68//100 66//100 70//100
f 79//101 76//101 73//101 80//101
f 78//102 75//102 76//102 79//102
f 77//103 74//103 75//103 78//103
f 80//104 73//104 74//104 77//104
f 65//105 80//105 77//105 67//105
f 67//106 77//106 78//106 71//106
f 71//107 78//107 79//107 69//107
f 69//108 79//108 80//108 65//108
o Cube.001_Cube.002
v 0.365233 0.007061 0.021945
v 0.351020 0.589463 0.058103
v 0.390943 0.000000 -0.058752
v 0.365664 0.571747 -0.054438
v 0.438991 0.000000 0.040064
v 0.444701 0.589324 0.076874
v 0.478547 0.000000 -0.064122
v 0.463906 0.566157 -0.030676
v 0.347113 0.422941 0.056106
v 0.369858 0.414151 -0.048112
v 0.476571 0.405472 -0.034354
v 0.441120 0.415036 0.072321
v 0.383808 0.243941 -0.041053
v 0.481823 0.245332 -0.045783
v 0.463729 0.235164 0.052377
v 0.373139 0.245336 0.055177
vn -0.9855 -0.0031 -0.1696
vn 0.1802 0.0014 -0.9836
vn 0.9695 0.0203 0.2443
vn -0.1838 -0.0148 0.9828
vn -0.0454 -0.9987 0.0221
vn 0.0675 0.9828 -0.1722
vn -0.0790 -0.0688 0.9945
vn 0.9659 0.0558 0.2527
vn 0.0446 0.0158 -0.9989
vn -0.9807 -0.1155 -0.1576
vn -0.9790 0.0229 -0.2024
vn -0.0547 0.0729 -0.9958
vn 0.9601 -0.0732 0.2699
vn -0.1016 -0.0883 0.9909
usemtl fence
s off
f 89//109 82//109 84//109 90//109
f 90//110 84//110 88//110 91//110
f 91//111 88//111 86//111 92//111
f 92//112 86//112 82//112 89//112
f 83//113 87//113 85//113 81//113
f 88//114 84//114 82//114 86//114
f 95//115 92//115 89//115 96//115
f 94//116 91//116 92//116 95//116
f 93//117 90//117 91//117 94//117
f 96//118 89//118 90//118 93//118
f 81//119 96//119 93//119 83//119
f 83//120 93//120 94//120 87//120
f 87//121 94//121 95//121 85//121
f 85//122 95//122 96//122 81//122
o Cube_Cube.001
v -0.643801 0.002010 0.035879
v -0.651138 0.610710 0.067501
v -0.642346 0.000000 -0.049354
v -0.639099 0.591267 -0.045040
v -0.531665 0.000000 0.057762
v -0.547457 0.590350 0.086271
v -0.536187 0.000000 -0.043827
v -0.527376 0.560491 -0.021278
v -0.670196 0.440239 0.065504
v -0.643318 0.428291 -0.038714
v -0.537522 0.419316 -0.024956
v -0.556840 0.432330 0.081719
v -0.619050 0.262782 -0.066350
v -0.516079 0.253708 -0.032859
v -0.525395 0.243193 0.061774
v -0.641130 0.256212 0.040786
vn -0.9804 0.0660 -0.1856
vn 0.1670 -0.0165 -0.9858
vn 0.9786 -0.0692 0.1938
vn -0.1599 -0.0058 0.9871
vn -0.0106 -0.9999 0.0109
vn 0.2600 0.9497 -0.1748
vn -0.1715 -0.1444 0.9745
vn 0.9811 0.1355 0.1379
vn 0.2298 0.1352 -0.9638
vn -0.9684 -0.1146 -0.2214
vn -0.9916 0.0470 -0.1202
vn 0.1822 -0.0268 -0.9829
vn 0.9983 -0.0536 0.0215
vn -0.1858 -0.0143 0.9825
usemtl fence
s off
f 105//123 98//123 100//123 106//123
f 106//124 100//124 104//124 107//124
f 107//125 104//125 102//125 108//125
f 108//126 102//126 98//126 105//126
f 99//127 103//127 101//127 97//127
f 104//128 100//128 98//128 102//128
f 111//129 108//129 105//129 112//129
f 110//130 107//130 108//130 111//130
f 109//131 106//131 107//131 110//131
f 112//132 105//132 106//132 109//132
f 97//133 112//133 109//133 99//133
f 99//134 109//134 110//134 103//134
f 103//135 110//135 111//135 101//135
f 101//136 111//136 112//136 97//136
