# Blender v2.79 (sub 0) OBJ File: 'Rock2.blend'
# www.blender.org
mtllib Rock2.mtl
o Icosphere_Icosphere.001
v 0.018599 -0.019517 -0.011716
v 0.617430 -0.018949 0.518773
v -0.130189 -0.030964 0.875120
v -0.656261 -0.023651 -0.024572
v -0.237794 -0.036360 -0.894004
v 0.574576 -0.004519 -0.559224
v 0.314961 0.635776 0.648529
v -0.341617 0.482558 0.293201
v -0.493112 0.454376 -0.369540
v 0.291185 0.411262 -0.748697
v 0.438947 0.570644 -0.084678
v 0.025349 0.751675 -0.178092
v -0.116763 -0.019567 0.501962
v 0.364986 -0.016222 0.301992
v 0.231631 -0.016688 0.815376
v 0.688780 -0.019195 -0.016016
v 0.364146 -0.015269 -0.333659
v -0.395063 -0.026094 -0.005460
v -0.443726 -0.033871 0.507134
v -0.129653 -0.018433 -0.527986
v -0.522290 -0.020160 -0.528083
v 0.229555 -0.021803 -0.855420
v 0.627384 0.551673 0.317085
v 0.578840 0.408091 -0.319209
v 0.146025 0.397065 0.929499
v 0.496669 0.434880 0.696959
v -0.495996 0.331234 0.180724
v -0.185887 0.379503 0.800123
v -0.442190 0.359880 -0.805523
v -0.650894 0.321949 -0.283854
v 0.484571 0.320140 -0.810861
v 0.048584 0.290335 -0.947560
v 0.509349 0.775754 0.417762
v 0.003090 0.609229 0.683110
v -0.574104 0.480022 -0.030362
v -0.144239 0.473113 -0.642148
v 0.479996 0.570010 -0.461361
v 0.280377 0.838446 0.418903
v 0.341555 0.758930 -0.074836
v -0.182588 0.672054 0.084541
v -0.299619 0.564504 -0.210223
v 0.134478 0.600783 -0.410851
vn 0.0078 -1.0000 0.0019
vn -0.0100 -0.9999 -0.0009
vn 0.0160 -0.9999 0.0041
vn 0.0158 -0.9999 -0.0066
vn 0.0082 -1.0000 -0.0044
vn 0.9908 0.0294 0.1322
vn 0.1674 -0.2298 0.9587
vn -0.9088 0.1981 0.3671
vn -0.7669 -0.2651 -0.5845
vn 0.6160 -0.3687 -0.6961
vn 0.9292 0.1086 0.3531
vn -0.3661 0.1190 0.9230
vn -0.9221 0.2413 0.3026
vn -0.2671 0.0767 -0.9606
vn 0.9724 0.1098 -0.2061
vn 0.2081 0.7487 0.6294
vn -0.5788 0.7727 0.2606
vn -0.3850 0.9088 -0.1607
vn 0.0047 0.8731 -0.4876
vn 0.8862 0.4534 0.0958
vn 0.1407 0.8596 -0.4913
vn 0.0167 0.9007 -0.4342
vn 0.0066 0.8734 -0.4869
vn -0.3451 0.7054 -0.6191
vn -0.2045 0.9402 -0.2725
vn -0.2786 0.9144 -0.2937
vn -0.4862 0.8652 -0.1226
vn -0.3920 0.9034 -0.1740
vn -0.4932 0.7972 0.3481
vn -0.3453 0.9384 0.0111
vn -0.4753 0.8475 0.2364
vn 0.0094 0.7504 0.6609
vn 0.0281 0.9874 -0.1555
vn 0.2615 0.9575 -0.1218
vn 0.8403 0.4504 -0.3016
vn 0.8141 0.5740 0.0878
vn 0.9077 0.3468 -0.2361
vn 0.1937 0.7993 -0.5689
vn -0.0045 0.8568 -0.5156
vn -0.0327 0.8484 -0.5284
vn -0.2319 0.9447 -0.2318
vn -0.6941 0.6862 -0.2176
vn -0.9473 -0.0478 0.3168
vn -0.7560 0.3696 0.5403
vn -0.6359 0.6945 0.3365
vn -0.3126 0.6226 0.7174
vn 0.0074 0.7599 0.6500
vn 0.4329 0.5615 0.7052
vn 0.8755 0.2863 0.3893
vn 0.7646 0.5521 -0.3325
vn 0.1492 0.7535 -0.6403
vn 0.3040 -0.1033 -0.9471
vn 0.0872 -0.2352 -0.9680
vn -0.6957 0.6809 -0.2288
vn -0.9235 -0.0793 -0.3752
vn -0.9510 -0.1760 -0.2543
vn -0.7731 0.5318 0.3456
vn -0.8737 0.2487 0.4181
vn -0.7611 0.0152 0.6484
vn 0.4185 0.5524 0.7209
vn 0.5576 -0.1115 0.8226
vn 0.6023 -0.1478 0.7845
vn 0.5562 0.8005 -0.2231
vn 0.9787 0.1714 -0.1133
vn 0.9735 0.1073 -0.2018
vn 0.0505 -0.9987 -0.0005
vn 0.0016 -0.9999 0.0121
vn 0.0277 -0.9988 0.0407
vn 0.0044 -0.9989 0.0476
vn 0.0044 -0.9999 -0.0124
vn -0.0087 -0.9999 -0.0092
vn -0.0082 -0.9998 -0.0159
vn 0.0435 -0.9990 -0.0110
vn 0.0432 -0.9986 -0.0289
vn 0.0180 -0.9994 -0.0308
vn -0.0106 -0.9999 -0.0015
vn 0.0109 -0.9999 -0.0015
vn 0.0346 -0.9990 -0.0293
vn 0.0074 -1.0000 0.0010
vn -0.0082 -1.0000 -0.0030
usemtl Rock
s off
f 1//1 14//1 13//1
f 2//2 14//2 16//2
f 1//3 13//3 18//3
f 1//4 18//4 20//4
f 1//5 20//5 17//5
f 2//6 16//6 23//6
f 3//7 15//7 25//7
f 4//8 19//8 27//8
f 5//9 21//9 29//9
f 6//10 22//10 31//10
f 2//11 23//11 26//11
f 3//12 25//12 28//12
f 4//13 27//13 30//13
f 5//14 29//14 32//14
f 6//15 31//15 24//15
f 7//16 33//16 38//16
f 8//17 34//17 40//17
f 9//18 35//18 41//18
f 10//19 36//19 42//19
f 11//20 37//20 39//20
f 39//21 42//21 12//21
f 39//22 37//22 42//22
f 37//23 10//23 42//23
f 42//24 41//24 12//24
f 42//25 36//25 41//25
f 36//26 9//26 41//26
f 41//27 40//27 12//27
f 41//28 35//28 40//28
f 35//29 8//29 40//29
f 40//30 38//30 12//30
f 40//31 34//31 38//31
f 34//32 7//32 38//32
f 38//33 39//33 12//33
f 38//34 33//34 39//34
f 33//35 11//35 39//35
f 24//36 37//36 11//36
f 24//37 31//37 37//37
f 31//38 10//38 37//38
f 32//39 36//39 10//39
f 32//40 29//40 36//40
f 29//41 9//41 36//41
f 30//42 35//42 9//42
f 30//43 27//43 35//43
f 27//44 8//44 35//44
f 28//45 34//45 8//45
f 28//46 25//46 34//46
f 25//47 7//47 34//47
f 26//48 33//48 7//48
f 26//49 23//49 33//49
f 23//50 11//50 33//50
f 31//51 32//51 10//51
f 31//52 22//52 32//52
f 22//53 5//53 32//53
f 29//54 30//54 9//54
f 29//55 21//55 30//55
f 21//56 4//56 30//56
f 27//57 28//57 8//57
f 27//58 19//58 28//58
f 19//59 3//59 28//59
f 25//60 26//60 7//60
f 25//61 15//61 26//61
f 15//62 2//62 26//62
f 23//63 24//63 11//63
f 23//64 16//64 24//64
f 16//65 6//65 24//65
f 17//66 22//66 6//66
f 17//67 20//67 22//67
f 20//68 5//68 22//68
f 20//69 21//69 5//69
f 20//70 18//70 21//70
f 18//71 4//71 21//71
f 18//72 19//72 4//72
f 18//73 13//73 19//73
f 13//74 3//74 19//74
f 16//75 17//75 6//75
f 16//76 14//76 17//76
f 14//77 1//77 17//77
f 13//78 15//78 3//78
f 13//79 14//79 15//79
f 14//80 2//80 15//80
