# Blender v2.79 (sub 0) OBJ File: 'tree.blend'
# www.blender.org
mtllib tree1.mtl
o Cylinder.001
v 0.000000 -2.314438 -0.701296
v 0.000000 -0.496095 -0.701296
v 0.220087 -2.314438 -0.495891
v 0.220087 -0.496095 -0.495891
v 0.311250 -2.314438 0.000000
v 0.311250 -0.496095 0.000000
v 0.220087 -2.314438 0.495891
v 0.220087 -0.496095 0.495891
v -0.000000 -2.314438 0.701296
v -0.000000 -0.496095 0.701296
v -0.220087 -2.314438 0.495891
v -0.220087 -0.496095 0.495891
v -0.311250 -2.314438 -0.000000
v -0.311250 -0.496095 -0.000000
v -0.220087 -2.314438 -0.495891
v -0.220087 -0.496095 -0.495891
v -0.000000 -1.405267 -0.506542
v 0.158968 -1.405267 -0.358180
v 0.224814 -1.405267 0.000000
v 0.158968 -1.405267 0.358180
v -0.000000 -1.405267 0.506542
v -0.158968 -1.405267 0.358180
v -0.224814 -1.405267 -0.000000
v -0.158968 -1.405267 -0.358180
vn 0.6741 -0.1547 -0.7223
vn 0.9792 -0.0931 -0.1800
vn 0.9792 -0.0931 0.1800
vn 0.6741 -0.1547 0.7223
vn -0.6741 -0.1547 0.7223
vn -0.9792 -0.0931 0.1800
vn 0.0000 1.0000 -0.0000
vn -0.9792 -0.0931 -0.1800
vn -0.6741 -0.1547 -0.7223
vn 0.0000 -1.0000 -0.0000
vn -0.6741 0.1547 -0.7223
vn -0.9792 0.0931 -0.1800
vn -0.9792 0.0931 0.1800
vn -0.6741 0.1547 0.7223
vn 0.6741 0.1547 0.7223
vn 0.9792 0.0931 0.1800
vn 0.9792 0.0931 -0.1800
vn 0.6741 0.1547 -0.7223
usemtl Bark
s off
f 17//1 2//1 4//1 18//1
f 18//2 4//2 6//2 19//2
f 19//3 6//3 8//3 20//3
f 20//4 8//4 10//4 21//4
f 21//5 10//5 12//5 22//5
f 22//6 12//6 14//6 23//6
f 4//7 2//7 16//7 14//7 12//7 10//7 8//7 6//7
f 23//8 14//8 16//8 24//8
f 24//9 16//9 2//9 17//9
f 1//10 3//10 5//10 7//10 9//10 11//10 13//10 15//10
f 15//11 24//11 17//11 1//11
f 13//12 23//12 24//12 15//12
f 11//13 22//13 23//13 13//13
f 9//14 21//14 22//14 11//14
f 7//15 20//15 21//15 9//15
f 5//16 19//16 20//16 7//16
f 3//17 18//17 19//17 5//17
f 1//18 17//18 18//18 3//18
o Cylinder
v -0.000000 -1.062315 -1.197263
v -0.000000 5.062049 -0.081934
v 0.707107 -0.772824 -0.707107
v 0.057936 5.062049 -0.057936
v 1.197263 -1.062315 0.000000
v 0.081934 5.062049 -0.000000
v 0.707107 -0.772824 0.707107
v 0.057936 5.062049 0.057936
v -0.000000 -1.062315 1.197263
v -0.000000 5.062049 0.081934
v -0.707107 -0.772824 0.707107
v -0.057936 5.062049 0.057936
v -1.197263 -1.062315 -0.000000
v -0.081934 5.062049 -0.000000
v -0.707107 -0.772824 -0.707107
v -0.057936 5.062049 -0.057936
v -0.000000 -0.031883 -1.014068
v -0.000000 0.998549 -0.830874
v -0.000000 2.028981 -0.647680
v -0.000000 3.059413 -0.464485
v -0.000000 4.089845 -0.281291
v 0.166131 4.379336 -0.166131
v 0.274326 3.348904 -0.274326
v 0.382521 2.318472 -0.382521
v 0.490717 1.288040 -0.490717
v 0.598912 0.257608 -0.598912
v 0.281291 4.089845 0.000000
v 0.464485 3.059413 0.000000
v 0.647680 2.028980 0.000000
v 0.830874 0.998549 0.000000
v 1.014068 -0.031883 0.000000
v 0.166131 4.379336 0.166131
v 0.274326 3.348904 0.274326
v 0.382521 2.318472 0.382521
v 0.490717 1.288040 0.490717
v 0.598912 0.257608 0.598912
v -0.000000 4.089845 0.281291
v -0.000000 3.059413 0.464485
v -0.000000 2.028980 0.647680
v -0.000000 0.998549 0.830874
v -0.000000 -0.031883 1.014068
v -0.166131 4.379336 0.166131
v -0.274326 3.348904 0.274326
v -0.382522 2.318472 0.382521
v -0.490717 1.288040 0.490716
v -0.598912 0.257608 0.598912
v -0.281291 4.089845 -0.000000
v -0.464485 3.059413 -0.000000
v -0.647680 2.028980 -0.000000
v -0.830874 0.998549 -0.000000
v -1.014068 -0.031883 -0.000000
v -0.166131 4.379336 -0.166131
v -0.274326 3.348904 -0.274326
v -0.382522 2.318472 -0.382521
v -0.490717 1.288040 -0.490717
v -0.598912 0.257608 -0.598912
v -0.000000 3.944644 -0.518322
v 0.306122 4.234134 -0.306122
v 0.518322 3.944643 0.000000
v 0.306122 4.234134 0.306122
v -0.000000 3.944643 0.518322
v -0.306122 4.234134 0.306122
v -0.518322 3.944643 -0.000000
v -0.306122 4.234134 -0.306122
v -0.000000 2.914212 -0.843060
v 0.497913 3.203702 -0.497913
v 0.843060 2.914211 0.000000
v 0.497913 3.203702 0.497913
v -0.000000 2.914211 0.843060
v -0.497913 3.203702 0.497913
v -0.843060 2.914211 -0.000000
v -0.497913 3.203702 -0.497913
v 0.000000 1.883779 -1.176089
v 0.694602 2.173270 -0.694602
v 1.176089 1.883779 0.000000
v 0.694602 2.173270 0.694602
v -0.000000 1.883779 1.176089
v -0.694602 2.173270 0.694601
v -1.176089 1.883779 -0.000000
v -0.694602 2.173270 -0.694602
v 0.000000 0.853347 -1.445461
v 0.853694 1.142838 -0.853694
v 1.445461 0.853347 0.000000
v 0.853694 1.142838 0.853694
v -0.000000 0.853347 1.445461
v -0.853694 1.142838 0.853693
v -1.445461 0.853347 -0.000000
v -0.853694 1.142838 -0.853693
v 0.000000 -0.177085 -1.720520
v 1.016144 0.112406 -1.016144
v 1.720521 -0.177085 0.000000
v 1.016144 0.112406 1.016144
v -0.000000 -0.177085 1.720520
v -1.016144 0.112406 1.016144
v -1.720520 -0.177085 -0.000000
v -1.016144 0.112406 -1.016144
v 1.201080 -0.918026 -1.201080
v 2.033651 -1.207517 0.000000
v 1.201080 -0.918026 1.201080
v -0.000000 -1.207517 2.033651
v -1.201080 -0.918026 1.201080
v -2.033651 -1.207517 -0.000000
v -1.201080 -0.918026 -1.201080
v -0.000000 -1.207517 -2.033651
vn 0.2975 0.3505 -0.8881
vn 0.8881 0.3505 -0.2975
vn 0.8881 0.3505 0.2975
vn 0.2975 0.3505 0.8881
vn -0.2975 0.3505 0.8881
vn -0.8881 0.3505 0.2975
vn 0.0000 1.0000 0.0000
vn -0.8881 0.3505 -0.2975
vn -0.2975 0.3505 -0.8881
vn 0.0000 -1.0000 0.0000
vn -0.3218 0.5920 -0.7389
vn -0.3295 0.5398 -0.7746
vn -0.3237 0.4988 -0.8040
vn -0.3060 0.4568 -0.8353
vn -0.2842 0.3754 -0.8822
vn -0.7389 0.5920 -0.3218
vn -0.7746 0.5398 -0.3295
vn -0.8040 0.4988 -0.3237
vn -0.8353 0.4568 -0.3060
vn -0.8822 0.3754 -0.2842
vn -0.7389 0.5920 0.3218
vn -0.7746 0.5398 0.3295
vn -0.8040 0.4988 0.3237
vn -0.8353 0.4568 0.3060
vn -0.8822 0.3754 0.2842
vn -0.3218 0.5920 0.7389
vn -0.3295 0.5398 0.7746
vn -0.3237 0.4988 0.8040
vn -0.3060 0.4568 0.8353
vn -0.2842 0.3754 0.8822
vn 0.3218 0.5920 0.7389
vn 0.3295 0.5398 0.7746
vn 0.3237 0.4988 0.8040
vn 0.3060 0.4568 0.8353
vn 0.2842 0.3754 0.8822
vn 0.7389 0.5920 0.3218
vn 0.7746 0.5398 0.3295
vn 0.8040 0.4988 0.3237
vn 0.8353 0.4568 0.3060
vn 0.8822 0.3754 0.2842
vn 0.7389 0.5920 -0.3218
vn 0.7746 0.5398 -0.3295
vn 0.8040 0.4988 -0.3237
vn 0.8353 0.4568 -0.3060
vn 0.8822 0.3754 -0.2842
vn 0.3218 0.5920 -0.7389
vn 0.3295 0.5398 -0.7746
vn 0.3237 0.4988 -0.8040
vn 0.3060 0.4568 -0.8353
vn 0.2842 0.3754 -0.8822
vn -0.3667 -0.6662 0.6493
vn 0.6493 -0.6662 -0.3667
vn 0.6493 -0.6662 0.3667
vn -0.3667 -0.6662 -0.6493
vn 0.3667 -0.6662 -0.6493
vn -0.6493 -0.6662 0.3667
vn -0.6493 -0.6662 -0.3667
vn 0.3667 -0.6662 0.6493
vn 0.2720 -0.8234 0.4981
vn -0.4981 -0.8234 -0.2720
vn -0.4981 -0.8234 0.2720
vn 0.2720 -0.8234 -0.4981
vn -0.2720 -0.8234 -0.4981
vn 0.4981 -0.8234 0.2720
vn 0.4981 -0.8234 -0.2720
vn -0.2720 -0.8234 0.4981
vn 0.2125 -0.8965 0.3887
vn -0.3887 -0.8965 -0.2125
vn -0.3887 -0.8965 0.2125
vn 0.2125 -0.8965 -0.3887
vn -0.2125 -0.8965 -0.3887
vn 0.3887 -0.8965 0.2125
vn 0.3887 -0.8965 -0.2125
vn -0.2125 -0.8965 0.3887
vn 0.1657 -0.9269 0.3369
vn -0.3369 -0.9269 -0.1657
vn -0.3369 -0.9269 0.1657
vn 0.1657 -0.9269 -0.3369
vn -0.1657 -0.9269 -0.3369
vn 0.3369 -0.9269 0.1657
vn 0.3369 -0.9269 -0.1657
vn -0.1657 -0.9269 0.3369
vn 0.1349 -0.9460 0.2946
vn -0.2946 -0.9460 -0.1349
vn -0.2946 -0.9460 0.1349
vn 0.1349 -0.9460 -0.2946
vn -0.1349 -0.9460 -0.2946
vn 0.2946 -0.9460 0.1349
vn 0.2946 -0.9460 -0.1349
vn -0.1349 -0.9460 0.2946
vn 0.1162 -0.9605 0.2528
vn -0.2528 -0.9605 -0.1162
vn -0.2528 -0.9605 0.1162
vn 0.1162 -0.9605 -0.2528
vn -0.1162 -0.9605 -0.2528
vn 0.2528 -0.9605 0.1162
vn 0.2528 -0.9605 -0.1162
vn -0.1162 -0.9605 0.2528
usemtl Leaves
s off
f 81//19 26//19 28//19 82//19
f 82//20 28//20 30//20 83//20
f 83//21 30//21 32//21 84//21
f 84//22 32//22 34//22 85//22
f 85//23 34//23 36//23 86//23
f 86//24 36//24 38//24 87//24
f 28//25 26//25 40//25 38//25 36//25 34//25 32//25 30//25
f 87//26 38//26 40//26 88//26
f 88//27 40//27 26//27 81//27
f 25//28 27//28 29//28 31//28 33//28 35//28 37//28 39//28
f 127//29 80//29 41//29 128//29
f 120//30 79//30 42//30 113//30
f 112//31 78//31 43//31 105//31
f 104//32 77//32 44//32 97//32
f 96//33 76//33 45//33 89//33
f 126//34 75//34 80//34 127//34
f 119//35 74//35 79//35 120//35
f 111//36 73//36 78//36 112//36
f 103//37 72//37 77//37 104//37
f 95//38 71//38 76//38 96//38
f 125//39 70//39 75//39 126//39
f 118//40 69//40 74//40 119//40
f 110//41 68//41 73//41 111//41
f 102//42 67//42 72//42 103//42
f 94//43 66//43 71//43 95//43
f 124//44 65//44 70//44 125//44
f 117//45 64//45 69//45 118//45
f 109//46 63//46 68//46 110//46
f 101//47 62//47 67//47 102//47
f 93//48 61//48 66//48 94//48
f 123//49 60//49 65//49 124//49
f 116//50 59//50 64//50 117//50
f 108//51 58//51 63//51 109//51
f 100//52 57//52 62//52 101//52
f 92//53 56//53 61//53 93//53
f 122//54 55//54 60//54 123//54
f 115//55 54//55 59//55 116//55
f 107//56 53//56 58//56 108//56
f 99//57 52//57 57//57 100//57
f 91//58 51//58 56//58 92//58
f 121//59 50//59 55//59 122//59
f 114//60 49//60 54//60 115//60
f 106//61 48//61 53//61 107//61
f 98//62 47//62 52//62 99//62
f 90//63 46//63 51//63 91//63
f 128//64 41//64 50//64 121//64
f 113//65 42//65 49//65 114//65
f 105//66 43//66 48//66 106//66
f 97//67 44//67 47//67 98//67
f 89//68 45//68 46//68 90//68
f 76//69 88//69 81//69 45//69
f 71//70 87//70 88//70 76//70
f 66//71 86//71 87//71 71//71
f 61//72 85//72 86//72 66//72
f 56//73 84//73 85//73 61//73
f 51//74 83//74 84//74 56//74
f 46//75 82//75 83//75 51//75
f 45//76 81//76 82//76 46//76
f 44//77 89//77 90//77 47//77
f 47//78 90//78 91//78 52//78
f 52//79 91//79 92//79 57//79
f 57//80 92//80 93//80 62//80
f 62//81 93//81 94//81 67//81
f 67//82 94//82 95//82 72//82
f 72//83 95//83 96//83 77//83
f 77//84 96//84 89//84 44//84
f 43//85 97//85 98//85 48//85
f 48//86 98//86 99//86 53//86
f 53//87 99//87 100//87 58//87
f 58//88 100//88 101//88 63//88
f 63//89 101//89 102//89 68//89
f 68//90 102//90 103//90 73//90
f 73//91 103//91 104//91 78//91
f 78//92 104//92 97//92 43//92
f 42//93 105//93 106//93 49//93
f 49//94 106//94 107//94 54//94
f 54//95 107//95 108//95 59//95
f 59//96 108//96 109//96 64//96
f 64//97 109//97 110//97 69//97
f 69//98 110//98 111//98 74//98
f 74//99 111//99 112//99 79//99
f 79//100 112//100 105//100 42//100
f 41//101 113//101 114//101 50//101
f 50//102 114//102 115//102 55//102
f 55//103 115//103 116//103 60//103
f 60//104 116//104 117//104 65//104
f 65//105 117//105 118//105 70//105
f 70//106 118//106 119//106 75//106
f 75//107 119//107 120//107 80//107
f 80//108 120//108 113//108 41//108
f 25//109 128//109 121//109 27//109
f 27//110 121//110 122//110 29//110
f 29//111 122//111 123//111 31//111
f 31//112 123//112 124//112 33//112
f 33//113 124//113 125//113 35//113
f 35//114 125//114 126//114 37//114
f 37//115 126//115 127//115 39//115
f 39//116 127//116 128//116 25//116
